<svg xmlns="http://www.w3.org/2000/svg" width="160" height="160" viewBox="0 0 160 160" fill="none">
  <rect width="160" height="160" rx="36" fill="#FFF6CC"/>
  <rect x="12" y="12" width="136" height="136" rx="30" fill="url(#bg)" stroke="#FFD95F" stroke-width="4"/>
  <path d="M46 105V49h18v40h33v16H46Z" fill="#2F1B03"/>
  <path d="M70 105V49h48v15H88v7h26v14H88v6h32v14H70Z" fill="#7C4913"/>
  <path d="M45 119c17-8 42-12 70-5 4 1 7 5 6 9-1 5-5 7-10 6-23-6-44-3-59 4-4 2-9 0-11-4-2-4 0-8 4-10Z" fill="#E4A912"/>
  <circle cx="113" cy="43" r="12" fill="#FFD95F"/>
  <circle cx="113" cy="43" r="5" fill="#985D0E"/>
  <defs>
    <linearGradient id="bg" x1="22" y1="20" x2="138" y2="145" gradientUnits="userSpaceOnUse">
      <stop stop-color="#FFFBEA"/>
      <stop offset="0.52" stop-color="#FFE999"/>
      <stop offset="1" stop-color="#E4A912"/>
    </linearGradient>
  </defs>
</svg>